<svg width="32" height="32" viewBox="0 0 32 32" fill="none" xmlns="http://www.w3.org/2000/svg">
  <rect width="32" height="32" rx="16" fill="#EAB308" fillOpacity="0.2"/>
  <path d="M23.5 17.5L22.25 13.75C22.1 13.25 21.65 12.9167 21.125 12.9167H10.875C10.35 12.9167 9.9 13.25 9.75 13.75L8.5 17.5" stroke="#EAB308" strokeWidth="1.5"/>
  <path d="M20.5 20.8333H19.8333C19.375 20.8333 19 20.4583 19 20V19.1667H13V20C13 20.4583 12.625 20.8333 12.1667 20.8333H11.5" stroke="#EAB308" strokeWidth="1.5" strokeLinecap="round"/>
  <path d="M24 18.3333V19.1667C24 20.0833 23.25 20.8333 22.3333 20.8333H21.6667C21.2083 20.8333 20.8333 20.4583 20.8333 20V19.1667H11.1667V20C11.1667 20.4583 10.7917 20.8333 10.3333 20.8333H9.66667C8.75 20.8333 8 20.0833 8 19.1667V18.3333C8 17.4167 8.75 16.6667 9.66667 16.6667H22.3333C23.25 16.6667 24 17.4167 24 18.3333Z" fill="#EAB308" stroke="#EAB308" strokeWidth="1.5"/>
  <path d="M11.5 15L12.1667 15.8333" stroke="#EAB308" strokeWidth="1.5" strokeLinecap="round" strokeLinejoin="round"/>
  <path d="M20.5 15L19.8333 15.8333" stroke="#EAB308" strokeWidth="1.5" strokeLinecap="round" strokeLinejoin="round"/>
  <circle cx="10.5" cy="18.5" r="1" fill="white"/>
  <circle cx="21.5" cy="18.5" r="1" fill="white"/>
</svg> 